# Blender 4.1.1
# www.blender.org
mtllib impreza555.mtl
o Cylinder
v -0.619016 -0.891280 2.943346
v -0.619016 -0.887990 3.383334
v -0.549733 -0.931279 2.943645
v -0.549733 -0.927989 3.383633
v -0.549733 -1.011277 2.944243
v -0.549733 -1.007986 3.384231
v -0.619016 -1.051276 2.944542
v -0.619016 -1.047985 3.384530
v -0.688298 -1.011277 2.944243
v -0.688298 -1.007986 3.384231
v -0.688298 -0.931279 2.943645
v -0.688298 -0.927989 3.383633
v 0.896157 0.642270 1.304648
v 0.896157 0.687620 -0.408056
v 1.102662 0.084043 -1.570276
v 1.102662 0.109127 2.168057
v 0.486485 -0.042288 -2.497681
v 1.354171 -0.190532 -2.575295
v 1.436717 -0.190532 2.171065
v 1.096748 -0.885624 3.140144
v 0.896157 0.774999 0.474692
v 1.102662 0.116947 0.445432
v 1.339530 -0.190532 0.451537
v 1.339530 -0.536061 0.451537
v 1.142918 -0.316228 -3.259534
v 1.435492 -0.537775 2.282001
v 0.691664 -0.531893 -3.383458
v 1.142918 -0.534279 -3.259534
v 0.691663 -1.093543 -3.548119
v 1.142918 -1.093543 -3.424195
v 0.691664 -0.531893 -3.548119
v 1.142918 -0.534279 -3.424195
v 1.298854 -0.536075 -1.457695
v 1.298854 -1.093543 -1.457695
v 1.298854 -0.190532 -1.457695
v 1.097450 -0.982804 3.024678
v 1.097451 0.109127 3.024678
v 1.097451 -0.190532 3.024678
v 1.097451 -0.534104 3.024678
v 1.096749 -0.534104 3.140144
v 1.339530 -1.093543 0.451537
v 0.691664 -0.316228 -3.383458
v 0.484170 -0.166070 -2.472126
v 0.486115 -0.101306 -2.171461
v 0.948783 0.208753 -1.079254
v 0.988868 0.204963 -1.188725
v 1.122459 -0.050460 -0.997746
v 1.162544 -0.054250 -1.107215
v 1.474301 0.297653 -0.922073
v 1.494009 0.305995 -0.982244
v 1.523633 0.150331 -0.903408
v 1.543342 0.158673 -0.963579
v 1.417569 -0.303632 1.832281
v 1.393237 -0.535806 2.280465
v 1.377401 -1.082656 2.356309
v 1.376662 -0.900270 2.432281
v 1.384660 -1.093543 1.312788
v 1.380441 -0.900270 1.232281
v 1.388391 -0.536058 1.383993
v 1.349021 -0.478383 -2.791437
v 1.354171 -0.389356 -2.575295
v 1.322870 -0.478383 -1.942909
v 1.314172 -0.900270 -1.767173
v 1.318156 -1.093543 -1.847680
v 1.308875 -1.093543 -2.886665
v 1.333682 -0.900270 -2.967173
v 1.343869 -0.303632 -2.367173
v 1.006215 0.601426 2.728718
v 1.006215 0.012845 2.818615
v 1.006215 0.129994 2.299534
v 1.086215 0.588073 3.099172
v 1.086215 0.601427 2.728715
v 1.086215 0.012845 2.818615
v 1.086215 0.129994 2.299534
v 1.006215 0.519107 3.098650
v 1.006215 0.599106 3.098650
v 1.006215 0.519107 2.718650
v 0.607292 0.763092 -0.310258
v 0.604978 0.639310 -0.284703
v 0.606923 0.704075 0.015962
v 0.331033 0.779557 -0.310258
v 0.331033 0.646164 -0.284703
v 0.331033 0.710583 0.015962
v 0.000621 0.692611 1.448057
v 0.000621 0.737993 -0.607543
v -0.888850 0.642270 1.304648
v -0.888850 0.687620 -0.408056
v -1.095355 0.084043 -1.570276
v -1.095355 0.109127 2.168057
v -0.479178 -0.042288 -2.497681
v -1.346864 -0.190532 -2.575295
v -1.429411 -0.190532 2.171065
v -1.089442 -0.885624 3.140144
v 0.000621 0.822853 0.445432
v -0.888850 0.774999 0.474692
v -1.095355 0.116947 0.445431
v -1.332224 -0.190532 0.451537
v -1.332224 -0.536061 0.451537
v -1.135612 -0.316228 -3.259534
v -1.428185 -0.537775 2.282001
v -0.684357 -0.531893 -3.383458
v -1.135612 -0.534279 -3.259534
v 0.000621 -0.527807 -3.615414
v 0.000621 -1.093543 -3.615414
v -0.684357 -1.093543 -3.548119
v -1.135612 -1.093543 -3.424195
v -0.684357 -0.531893 -3.548119
v -1.135612 -0.534279 -3.424195
v -1.291547 -0.536075 -1.457695
v -1.291547 -1.093543 -1.457695
v -1.291547 -0.190532 -1.457695
v -1.090144 -0.982804 3.024678
v -1.090144 0.109127 3.024678
v -1.090144 -0.190532 3.024678
v -1.090144 -0.534104 3.024678
v -1.089442 -0.534104 3.140144
v -1.332224 -1.093543 0.451537
v -0.684358 -0.316228 -3.383458
v 0.000621 0.098521 -1.847594
v 0.000621 -0.316228 -3.450753
v -0.476863 -0.166070 -2.472126
v 0.000621 -0.159216 -2.472126
v 0.000621 -0.094798 -2.171461
v -0.478808 -0.101306 -2.171461
v 0.000621 0.006561 -2.497682
v -0.941476 0.208753 -1.079254
v -0.981561 0.204963 -1.188725
v -1.115153 -0.050460 -0.997746
v -1.155237 -0.054250 -1.107216
v -1.466994 0.297653 -0.922073
v -1.486703 0.305995 -0.982244
v -1.516327 0.150331 -0.903408
v -1.536035 0.158673 -0.963579
v 0.000621 -0.527807 -3.450753
v -1.410263 -0.303632 1.832281
v -1.385930 -0.535806 2.280465
v -1.370094 -1.082656 2.356309
v -1.369355 -0.900270 2.432281
v -1.377353 -1.093543 1.312788
v -1.373135 -0.900270 1.232281
v -1.381084 -0.536058 1.383993
v -1.341714 -0.478383 -2.791437
v -1.346864 -0.389356 -2.575295
v -1.315563 -0.478383 -1.942909
v -1.306865 -0.900270 -1.767173
v -1.310850 -1.093543 -1.847680
v -1.301569 -1.093543 -2.886665
v -1.326375 -0.900270 -2.967173
v -1.336563 -0.303632 -2.367173
v -0.998909 0.601426 2.728718
v -0.998909 0.012845 2.818615
v -0.998909 0.129994 2.299534
v -1.078908 0.588073 3.099172
v -1.078908 0.601427 2.728715
v -1.078908 0.012845 2.818615
v -1.078908 0.129994 2.299534
v -0.998909 0.519107 3.098650
v -0.998909 0.599106 3.098650
v -0.998909 0.519107 2.718650
v 0.003653 0.109127 2.168057
v -0.599986 0.763092 -0.310259
v -0.597671 0.639310 -0.284703
v -0.599616 0.704075 0.015962
v -0.323726 0.779557 -0.310259
v -0.323726 0.646164 -0.284703
v -0.323726 0.710583 0.015962
v -0.613088 0.761940 0.918207
v 0.617362 0.761940 0.918207
v 0.617362 0.825415 0.438501
v -0.613088 0.825416 0.438501
v 0.002137 0.829762 0.438501
v 0.002137 0.753631 0.918207
vn 0.5000 0.8660 -0.0065
vn 1.0000 -0.0000 -0.0000
vn 0.5000 -0.8660 0.0065
vn -0.5000 -0.8660 0.0065
vn -0.0000 0.0075 1.0000
vn -1.0000 -0.0000 -0.0000
vn -0.5000 0.8660 -0.0065
vn 0.9405 0.3392 0.0187
vn 0.0632 0.9879 0.1418
vn 0.7285 0.6848 -0.0190
vn -0.0618 0.8194 0.5699
vn 0.0407 0.9691 -0.2434
vn 0.9152 -0.0000 -0.4030
vn 0.0969 -0.0000 -0.9953
vn 0.9998 -0.0000 -0.0213
vn 0.0658 0.9939 -0.0884
vn 0.9533 0.3005 -0.0297
vn 0.2648 -0.0000 -0.9643
vn 0.0053 1.0000 -0.0000
vn 0.9441 0.1870 -0.2715
vn 0.9349 0.0483 -0.3515
vn -0.2617 0.9651 -0.0000
vn 0.0059 1.0000 -0.0000
vn 0.8035 0.5951 -0.0133
vn 0.0269 0.9996 0.0073
vn 0.9301 0.0007 0.3674
vn -0.0000 -0.7651 0.6439
vn 0.8599 0.4802 0.1732
vn 0.5142 0.8513 -0.1039
vn -0.0000 1.0000 -0.0000
vn 0.0702 0.9710 -0.2284
vn 0.1352 0.8847 -0.4462
vn -0.0100 -0.1737 -0.9847
vn 0.9998 -0.0192 -0.0023
vn 0.0553 0.9696 0.2384
vn 0.3745 -0.0230 -0.9270
vn -0.2842 0.0795 0.9555
vn 0.4329 -0.8922 0.1286
vn -0.1697 0.9849 -0.0334
vn 0.8799 0.3371 0.3349
vn 0.9293 -0.0000 0.3693
vn 0.9986 -0.0000 -0.0523
vn 0.9429 0.3331 -0.0054
vn 0.9979 -0.0518 -0.0391
vn 0.9984 -0.0076 -0.0551
vn 0.9988 -0.0000 0.0494
vn 0.9279 -0.2384 -0.2865
vn 0.8874 -0.2573 0.3824
vn -0.0000 0.6732 -0.7395
vn -0.0329 -0.4344 0.9001
vn 0.0687 0.9974 0.0211
vn -0.0083 -0.1949 -0.9808
vn 0.0408 0.9805 0.1924
vn -0.9405 0.3392 0.0187
vn -0.7285 0.6848 -0.0190
vn -0.0410 0.9691 -0.2434
vn -0.9152 -0.0000 -0.4030
vn -0.0978 -0.0000 -0.9952
vn -0.9998 -0.0000 -0.0213
vn -0.0662 0.9939 -0.0884
vn -0.9533 0.3005 -0.0297
vn -0.2648 -0.0000 -0.9643
vn -0.0053 1.0000 -0.0000
vn -0.9441 0.1870 -0.2715
vn -0.9349 0.0483 -0.3515
vn 0.2617 0.9651 -0.0000
vn -0.0060 1.0000 -0.0000
vn -0.8035 0.5951 -0.0133
vn -0.0269 0.9996 0.0073
vn -0.9301 0.0007 0.3674
vn -0.8599 0.4802 0.1732
vn -0.5142 0.8513 -0.1039
vn -0.0706 0.9710 -0.2284
vn -0.1360 0.8846 -0.4460
vn 0.0101 -0.1737 -0.9847
vn -0.9998 -0.0192 -0.0023
vn -0.0560 0.9696 0.2384
vn -0.3745 -0.0230 -0.9270
vn 0.2842 0.0795 0.9555
vn -0.4329 -0.8922 0.1286
vn 0.1697 0.9849 -0.0334
vn -0.8799 0.3371 0.3349
vn -0.9293 -0.0000 0.3693
vn -0.9986 -0.0000 -0.0523
vn -0.9429 0.3331 -0.0054
vn -0.9979 -0.0519 -0.0391
vn -0.9984 -0.0076 -0.0551
vn -0.9988 -0.0000 0.0494
vn -0.9279 -0.2384 -0.2865
vn -0.8874 -0.2573 0.3824
vn 0.0329 -0.4344 0.9001
vn -0.0687 0.9974 0.0211
vn 0.0083 -0.1949 -0.9808
vn -0.0408 0.9805 0.1924
vn -0.0000 -1.0000 -0.0000
vn -0.0000 1.0000 0.0063
vn -0.0000 -0.0000 1.0000
vn -0.0000 0.1214 -0.9926
vn 0.0616 0.8195 0.5698
vn -0.0636 0.9879 0.1418
vn -0.0000 0.9902 0.1400
vn -0.0000 0.9914 0.1312
vt 1.000000 0.500000
vt 1.000000 1.000000
vt 0.833333 1.000000
vt 0.833333 0.500000
vt 0.666667 1.000000
vt 0.666667 0.500000
vt 0.500000 1.000000
vt 0.500000 0.500000
vt 0.333333 1.000000
vt 0.333333 0.500000
vt 0.984375 0.664062
vt 0.968750 0.671875
vt 0.968750 0.636719
vt 0.984375 0.644531
vt 0.166667 1.000000
vt 0.166667 0.500000
vt -0.000000 1.000000
vt -0.000000 0.500000
vt 0.953125 0.644531
vt 0.953125 0.664062
vt 0.381704 0.909070
vt 0.376869 0.998078
vt 0.246789 0.988954
vt 0.156652 0.908048
vt 0.796875 0.628906
vt 0.757812 0.632812
vt 0.757812 0.589844
vt 0.796875 0.593750
vt 0.380906 0.868900
vt 0.156259 0.868900
vt 0.617188 0.222656
vt 0.644531 0.074219
vt 0.414062 0.019531
vt 0.375000 0.179688
vt 0.181933 0.242246
vt 0.021089 0.009772
vt 0.064750 0.007308
vt 0.183317 0.003238
vt 0.808028 0.827849
vt 0.905349 0.820546
vt 0.901904 0.852786
vt 0.099490 0.399089
vt 0.243711 0.400194
vt 0.243711 0.451712
vt 0.099490 0.451712
vt 0.630337 0.868900
vt 0.380906 0.738870
vt 0.630337 0.738870
vt 0.796875 0.640625
vt 0.757812 0.648438
vt 0.496070 0.989351
vt 0.004479 0.451712
vt 0.004479 0.398443
vt 0.773731 0.441690
vt 0.679607 0.441207
vt 0.679607 0.441207
vt 0.779791 0.865455
vt 0.779791 0.839480
vt 0.243294 0.287109
vt 0.243294 0.401482
vt 0.100418 0.400656
vt 0.100418 0.287109
vt 0.006293 0.400173
vt 0.006293 0.287109
vt 0.830987 0.772732
vt 0.914062 0.753906
vt 0.914062 0.816406
vt 0.915667 0.816241
vt 0.804957 0.445378
vt 0.662081 0.444552
vt 0.662097 0.900841
vt 0.026519 0.828062
vt 0.011434 0.828062
vt 0.141766 0.823534
vt 0.141966 0.823791
vt 0.011434 0.782138
vt 0.122132 0.776176
vt 0.975986 0.229649
vt 0.975830 0.249273
vt 0.491032 0.249273
vt 0.490877 0.229649
vt 0.027413 0.905841
vt 0.026519 0.864905
vt 0.975830 0.320256
vt 0.975986 0.320256
vt 0.490877 0.320256
vt 0.491032 0.320256
vt 0.006069 0.263842
vt 0.411075 0.033574
vt 0.367061 0.181635
vt 0.606375 0.216078
vt 0.611259 0.023511
vt 0.000000 0.000000
vt 1.000000 0.000000
vt 0.000000 1.000000
vt 0.879090 0.865677
vt 0.878943 0.888464
vt 0.879118 0.890401
vt 0.842754 0.890401
vt 0.842754 0.865677
vt 0.026519 0.820019
vt 0.268388 0.738870
vt 0.278906 0.776176
vt 0.200519 0.854124
vt 0.259086 0.823758
vt 0.380906 0.823758
vt 0.752600 0.850679
vt 0.630337 0.823756
vt 0.697173 0.827849
vt 0.674214 0.772732
vt 0.679565 0.734565
vt 0.820469 0.747481
vt 0.917389 0.751787
vt 0.126410 0.751065
vt 0.121674 0.774799
vt 0.011124 0.782101
vt 0.027833 0.762251
vt 0.071660 0.895470
vt 0.139475 0.910775
vt 0.078344 0.961231
vt 0.025897 0.960498
vt 0.885975 0.869646
vt 0.884375 0.869646
vt 0.884375 0.859941
vt 0.885975 0.859941
vt 0.885975 0.857908
vt 0.885975 0.851563
vt 0.884375 0.851575
vt 0.884375 0.857908
vt 0.136278 0.839219
vt 0.136278 0.899671
vt 0.136278 0.898069
vt 0.941230 0.982020
vt 0.941230 0.970359
vt 0.995157 0.970359
vt 0.995233 0.982020
vt 0.543371 0.637630
vt 0.768423 0.636609
vt 0.678286 0.717514
vt 0.548206 0.726638
vt 0.544169 0.597460
vt 0.768816 0.597460
vt 0.183169 0.242246
vt 0.181785 0.003238
vt 0.300352 0.007308
vt 0.344013 0.009772
vt 0.117047 0.556409
vt 0.023171 0.581346
vt 0.019727 0.549107
vt 0.390273 0.399089
vt 0.390273 0.451712
vt 0.246052 0.451712
vt 0.246052 0.400194
vt 0.294738 0.597460
vt 0.294738 0.467431
vt 0.544169 0.467431
vt 0.722656 0.640625
vt 0.722656 0.628906
vt 0.429005 0.717911
vt 0.485284 0.451712
vt 0.485284 0.398443
vt 0.145285 0.568040
vt 0.145285 0.594015
vt 0.246944 0.287109
vt 0.389820 0.287109
vt 0.389820 0.400656
vt 0.246944 0.401482
vt 0.483945 0.287109
vt 0.483944 0.400173
vt 0.094088 0.501292
vt 0.007812 0.542969
vt 0.007686 0.480347
vt 0.262979 0.629401
vt 0.898556 0.556623
vt 0.783109 0.552351
vt 0.783310 0.552094
vt 0.913641 0.556623
vt 0.802943 0.504736
vt 0.913641 0.510698
vt 0.898556 0.593465
vt 0.897662 0.634401
vt 0.359033 0.263842
vt 0.898556 0.548579
vt 0.656687 0.467431
vt 0.646169 0.504736
vt 0.724556 0.582684
vt 0.544169 0.552318
vt 0.665990 0.552318
vt 0.172475 0.579239
vt 0.294738 0.552316
vt 0.227903 0.556409
vt 0.250862 0.501292
vt 0.245511 0.463125
vt 0.104606 0.476042
vt 0.798665 0.479625
vt 0.897243 0.490811
vt 0.913952 0.510661
vt 0.803401 0.503359
vt 0.853415 0.624030
vt 0.899179 0.689058
vt 0.846731 0.689791
vt 0.785600 0.639335
vt 0.941230 0.680137
vt 0.995233 0.680137
vt 0.995156 0.691799
vt 0.941230 0.691799
vt 0.975986 0.450146
vt 0.490877 0.450146
vt 0.538727 0.450483
vt 0.538727 0.406554
vt 0.628828 0.406554
vt 0.628828 0.450483
vt 0.722656 0.593750
vt 0.996094 0.218750
vt 0.675781 0.019531
vt 0.835938 0.019531
vt 0.996094 0.019531
vt 0.675781 0.218750
s 0
usemtl Material
f 4/11/5 2/12/5 8/13/5 6/14/5
f 10/19/5 8/13/5 2/12/5 12/20/5
f 22/21/8 21/22/8 13/23/8 16/24/8
f 21/25/9 94/26/9 84/27/9 13/28/9
f 23/29/10 22/21/10 16/24/10 19/30/10
f 89/31/11 160/32/11 84/33/11 86/34/11
f 119/35/12 25/36/12 42/37/12 120/38/12
f 60/39/13 28/40/13 25/41/13
f 27/42/14 134/43/14 120/44/14 42/45/14
f 35/46/15 23/29/15 41/47/15 34/48/15
f 14/49/16 85/50/16 94/26/16 21/25/16
f 21/22/17 22/21/17 14/51/17
f 25/52/18 28/53/18 27/42/18 42/45/18
f 60/39/20 25/41/20 18/57/20 61/58/20
f 104/59/14 103/60/14 31/61/14 29/62/14
f 29/62/18 31/61/18 32/63/18 30/64/18
f 66/65/21 30/66/21 32/67/21 60/39/21
f 32/68/22 28/40/22 60/39/22
f 35/46/24 15/71/24 22/21/24 23/29/24
f 40/73/26 20/76/26 56/77/26 26/74/26
f 36/78/27 20/79/27 93/80/27 112/81/27
f 19/30/28 16/24/28 37/82/28 38/83/28
f 18/57/29 25/41/29 15/71/29 35/46/29
f 25/36/31 119/35/31 15/88/31
f 85/89/32 14/90/32 15/91/32 119/92/32
f 19/30/41 38/83/41 39/101/41 54/75/41
f 57/102/42 41/47/42 58/103/42
f 15/71/43 14/51/43 22/21/43
f 19/30/44 54/75/44 53/104/44 23/29/44
f 23/29/45 53/104/45 59/105/45 24/106/45
f 58/103/42 41/47/42 24/106/42 59/105/42
f 67/107/46 61/58/46 18/57/46 35/46/46
f 33/108/46 62/109/46 67/107/46 35/46/46
f 63/110/46 62/109/46 33/108/46 34/48/46
f 63/110/46 34/48/46 64/111/46
f 66/65/47 65/112/47 30/113/47
f 55/114/48 56/115/48 20/116/48 36/117/48
f 73/118/2 74/119/2 72/120/2 71/121/2
f 72/133/51 68/134/51 76/135/51 71/136/51
f 96/137/54 89/138/54 86/139/54 95/140/54
f 97/141/55 92/142/55 89/138/55 96/137/55
f 119/143/56 120/144/56 118/145/56 99/146/56
f 142/147/57 99/148/57 102/149/57
f 101/150/58 118/151/58 120/152/58 134/153/58
f 111/154/59 110/155/59 117/156/59 97/141/59
f 87/157/60 95/158/60 94/26/60 85/50/60
f 95/140/61 87/159/61 96/137/61
f 99/160/62 118/151/62 101/150/62 102/161/62
f 142/147/64 143/162/64 91/163/64 99/148/64
f 104/164/58 105/165/58 107/166/58 103/167/58
f 105/165/62 106/168/62 108/169/62 107/166/62
f 148/170/65 142/147/65 108/171/65 106/172/65
f 108/68/66 142/39/66 102/40/66
f 111/154/68 97/141/68 96/137/68 88/173/68
f 116/177/70 100/176/70 138/178/70 93/179/70
f 92/142/71 114/180/71 113/181/71 89/138/71
f 91/163/72 111/154/72 88/173/72 99/148/72
f 99/146/73 88/182/73 119/143/73
f 85/89/74 119/92/74 88/91/74 87/90/74
f 92/142/83 136/175/83 115/183/83 114/180/83
f 139/184/84 140/185/84 117/156/84
f 88/173/85 96/137/85 87/159/85
f 92/142/86 97/141/86 135/186/86 136/175/86
f 97/141/87 98/187/87 141/188/87 135/186/87
f 140/185/84 141/188/84 98/187/84 117/156/84
f 149/189/88 111/154/88 91/163/88 143/162/88
f 109/190/88 111/154/88 149/189/88 144/191/88
f 145/192/88 110/155/88 109/190/88 144/191/88
f 145/192/88 146/193/88 110/155/88
f 148/170/89 106/172/89 147/194/89
f 137/195/90 112/196/90 93/197/90 138/198/90
f 155/199/6 153/200/6 154/201/6 156/202/6
f 154/203/92 153/204/92 158/205/92 150/206/92
f 76/135/96 68/134/96 150/206/96 158/205/96
f 40/84/97 116/87/97 93/80/97 20/79/97
f 13/34/99 84/33/99 160/32/99 16/31/99
f 39/85/97 37/207/97 113/208/97 115/86/97
f 37/209/30 16/210/30 89/211/30 113/212/30
f 95/158/100 86/213/100 84/27/100 94/26/100
f 167/214/101 169/215/101 171/216/101 170/217/101
f 167/214/102 168/218/102 169/215/102
usemtl Material.001
f 1/1/1 2/2/1 4/3/1 3/4/1
f 3/4/2 4/3/2 6/5/2 5/6/2
f 5/6/3 6/5/3 8/7/3 7/8/3
f 7/8/4 8/7/4 10/9/4 9/10/4
f 9/10/6 10/9/6 12/15/6 11/16/6
f 11/16/7 12/15/7 2/17/7 1/18/7
usemtl Material.002
f 43/93/33 122/94/33 125/2/33 17/95/33
f 46/93/36 50/94/36 52/2/36 48/95/36
f 47/93/37 51/94/37 49/2/37 45/95/37
f 47/93/38 48/94/38 52/2/38 51/95/38
f 45/93/39 49/94/39 50/2/39 46/95/39
f 49/93/40 51/94/40 52/2/40 50/95/40
f 79/93/52 82/94/52 81/2/52 78/95/52
f 121/93/75 90/95/75 125/2/75 122/94/75
f 127/93/78 129/95/78 133/2/78 131/94/78
f 128/93/79 126/95/79 130/2/79 132/94/79
f 128/93/80 132/95/80 133/2/80 129/94/80
f 126/93/81 127/95/81 131/2/81 130/94/81
f 130/93/82 131/95/82 133/2/82 132/94/82
f 162/93/93 161/95/93 164/2/93 165/94/93
usemtl Material.003
f 27/54/19 28/55/19 32/56/19 31/54/19
f 134/69/23 27/70/23 31/70/23 103/69/23
f 39/72/25 40/73/25 26/74/25 54/75/25
f 40/84/30 39/85/30 115/86/30 116/87/30
f 44/96/34 43/97/34 17/98/34
f 125/99/35 123/100/35 44/96/35 17/98/35
f 80/96/34 79/97/34 78/98/34
f 81/99/53 83/100/53 80/96/53 78/98/53
f 81/2/6 82/94/6 83/100/6
f 101/54/63 107/54/63 108/56/63 102/55/63
f 134/69/67 103/69/67 107/70/67 101/70/67
f 115/174/69 136/175/69 100/176/69 116/177/69
f 124/96/76 90/98/76 121/97/76
f 125/99/77 90/98/77 124/96/77 123/100/77
f 163/96/76 161/98/76 162/97/76
f 164/99/94 161/98/94 163/96/94 166/100/94
f 164/2/2 166/100/2 165/94/2
usemtl Material.004
f 74/122/49 70/123/49 68/124/49 72/125/49
f 73/126/50 71/127/50 76/128/50 69/129/50
f 70/123/6 69/129/6 76/128/6 68/124/6
f 75/130/2 77/131/2 68/132/2 76/130/2
f 156/122/49 154/125/49 150/124/49 152/123/49
f 155/126/91 151/129/91 158/128/91 153/127/91
f 152/123/2 150/124/2 158/128/2 151/129/2
f 157/130/6 158/130/6 150/132/6 159/131/6
f 77/131/95 75/130/95 157/130/95 159/131/95
f 75/130/97 76/128/97 158/130/97 157/130/97
f 68/124/98 77/131/98 159/131/98 150/124/98
